# xmcd CD database file
#
# Track frame offsets:
#	217
#	32092
#	57475
#	88257
#	130327
#	158265
#	184870
#	220532
#	263960
#
# Disc length: 3864 seconds
#
# Revision: 1
# Processed by: cddbd v1.5.1PL0 Copyright (c) Steve Scherf et al.
# Submitted via: CDex 1.51
#
DISCID=780f1609
DTITLE=Charlie Parker - Charlie Parker at Birdland, vol. 1 [CD2]
DYEAR=1900
DGENRE=Jazz
TTITLE0=Dizzy Atmosphere
TTITLE1=A Night in Tunisia
TTITLE2=Move/ 52nd Street Theme
TTITLE3=Street Beat
TTITLE4=Out of Nowhere
TTITLE5=Little Willie Leaps/ 52nd Street Theme
TTITLE6=Ornithology
TTITLE7=I'll Remeber April/ 52nd Street Theme
TTITLE8=52nd Street Theme
EXTD=
EXTT0=
EXTT1=
EXTT2=
EXTT3=
EXTT4=
EXTT5=
EXTT6=
EXTT7=
EXTT8=
PLAYORDER=
